<svg width="24" height="25" viewBox="0 0 24 25" fill="none" xmlns="http://www.w3.org/2000/svg">
<path d="M2 12.909V11.909C2 11.6329 2.22386 11.409 2.5 11.409H18.67L14.22 6.96903C14.1253 6.87515 14.0721 6.74735 14.0721 6.61403C14.0721 6.48071 14.1253 6.35292 14.22 6.25903L14.93 5.55903C15.0239 5.46438 15.1517 5.41113 15.285 5.41113C15.4183 5.41113 15.5461 5.46438 15.64 5.55903L21.78 11.689C21.9207 11.8295 21.9998 12.0202 22 12.219V12.599C21.9977 12.7974 21.9189 12.9873 21.78 13.129L15.64 19.259C15.5461 19.3537 15.4183 19.4069 15.285 19.4069C15.1517 19.4069 15.0239 19.3537 14.93 19.259L14.22 18.549C14.1259 18.4569 14.0729 18.3307 14.0729 18.199C14.0729 18.0673 14.1259 17.9412 14.22 17.849L18.67 13.409H2.5C2.22386 13.409 2 13.1852 2 12.909Z" fill="#2934D0"/>
</svg>
