<svg width="154" height="41" viewBox="0 0 154 41" fill="none" xmlns="http://www.w3.org/2000/svg">
<path d="M25.209 28.9854C23.8418 30.1611 22.3105 31.0635 20.6152 31.6924C18.9199 32.3213 17.1631 32.6357 15.3447 32.6357C13.9502 32.6357 12.6035 32.4512 11.3047 32.082C10.0195 31.7266 8.80957 31.2207 7.6748 30.5645C6.55371 29.8945 5.52832 29.0947 4.59863 28.165C3.66895 27.2354 2.86914 26.21 2.19922 25.0889C1.54297 23.9541 1.03027 22.7441 0.661133 21.459C0.305664 20.1602 0.12793 18.8135 0.12793 17.4189C0.12793 16.0244 0.305664 14.6777 0.661133 13.3789C1.03027 12.0801 1.54297 10.8701 2.19922 9.74902C2.86914 8.61426 3.66895 7.58203 4.59863 6.65234C5.52832 5.72266 6.55371 4.92969 7.6748 4.27344C8.80957 3.60352 10.0195 3.09082 11.3047 2.73535C12.6035 2.36621 13.9502 2.18164 15.3447 2.18164C17.1631 2.18164 18.9199 2.49609 20.6152 3.125C22.3105 3.74023 23.8418 4.64258 25.209 5.83203L22.0918 10.959C21.2305 10.0293 20.2119 9.31836 19.0361 8.82617C17.8604 8.32031 16.6299 8.06738 15.3447 8.06738C14.0459 8.06738 12.8291 8.31348 11.6943 8.80566C10.5596 9.29785 9.56836 9.96777 8.7207 10.8154C7.87305 11.6494 7.20312 12.6406 6.71094 13.7891C6.21875 14.9238 5.97266 16.1338 5.97266 17.4189C5.97266 18.7041 6.21875 19.9141 6.71094 21.0488C7.20312 22.1699 7.87305 23.1543 8.7207 24.002C9.56836 24.8496 10.5596 25.5195 11.6943 26.0117C12.8291 26.5039 14.0459 26.75 15.3447 26.75C16.6299 26.75 17.8604 26.5039 19.0361 26.0117C20.2119 25.5059 21.2305 24.7881 22.0918 23.8584L25.209 28.9854ZM34.6426 4.06836C34.6426 4.58789 34.54 5.07324 34.335 5.52441C34.1436 5.97559 33.877 6.37207 33.5352 6.71387C33.1934 7.04199 32.79 7.30859 32.3252 7.51367C31.874 7.70508 31.3887 7.80078 30.8691 7.80078C30.3496 7.80078 29.8574 7.70508 29.3926 7.51367C28.9414 7.30859 28.5449 7.04199 28.2031 6.71387C27.875 6.37207 27.6084 5.97559 27.4033 5.52441C27.2119 5.07324 27.1162 4.58789 27.1162 4.06836C27.1162 3.5625 27.2119 3.08398 27.4033 2.63281C27.6084 2.16797 27.875 1.77148 28.2031 1.44336C28.5449 1.10156 28.9414 0.834961 29.3926 0.643555C29.8574 0.438477 30.3496 0.335938 30.8691 0.335938C31.3887 0.335938 31.874 0.438477 32.3252 0.643555C32.79 0.834961 33.1934 1.10156 33.5352 1.44336C33.877 1.77148 34.1436 2.16797 34.335 2.63281C34.54 3.08398 34.6426 3.5625 34.6426 4.06836ZM33.6787 32H28.0391V10.0361H33.6787V32ZM48.9775 32C47.624 32 46.3525 31.7471 45.1631 31.2412C43.9736 30.7217 42.9277 30.0176 42.0254 29.1289C41.1367 28.2266 40.4326 27.1807 39.9131 25.9912C39.4072 24.8018 39.1543 23.5303 39.1543 22.1768V15.6553H36.4268V10.0771H39.1543V1.2998H44.7324V10.0771H53.2227V15.6553H44.7324V22.1768C44.7324 22.7646 44.8418 23.3184 45.0605 23.8379C45.2793 24.3438 45.5801 24.7881 45.9629 25.1709C46.3457 25.5537 46.7969 25.8613 47.3164 26.0938C47.8359 26.3125 48.3896 26.4219 48.9775 26.4219H53.2227V32H48.9775ZM61.6719 40.3672V34.7275L64.7891 34.7686C65.3359 34.7686 65.8623 34.6797 66.3682 34.502C66.874 34.3242 67.3389 34.0781 67.7627 33.7637C68.2002 33.4492 68.583 33.0732 68.9111 32.6357C69.2393 32.2119 69.5059 31.7471 69.7109 31.2412C69.0957 31.501 68.4668 31.7607 67.8242 32.0205C67.1953 32.2803 66.5596 32.4102 65.917 32.4102C64.5635 32.4102 63.292 32.1709 62.1025 31.6924C60.9131 31.2139 59.8672 30.5371 58.9648 29.6621C58.0762 28.7734 57.3721 27.7002 56.8525 26.4424C56.3467 25.1709 56.0938 23.749 56.0938 22.1768V10.0361H61.6719V22.1768C61.6719 22.9561 61.7812 23.6396 62 24.2275C62.2324 24.8018 62.54 25.2871 62.9229 25.6836C63.3057 26.0664 63.75 26.3535 64.2559 26.5449C64.7754 26.7363 65.3291 26.832 65.917 26.832C66.4912 26.832 67.0312 26.7021 67.5371 26.4424C68.0566 26.1689 68.5078 25.8135 68.8906 25.376C69.2734 24.9385 69.5742 24.4463 69.793 23.8994C70.0117 23.3389 70.1211 22.7646 70.1211 22.1768V10.0361H75.7607V29.2314C75.7471 30.7764 75.4463 32.2256 74.8584 33.5791C74.2705 34.9326 73.4639 36.1152 72.4385 37.127C71.4268 38.1387 70.2441 38.9385 68.8906 39.5264C67.5371 40.1143 66.0879 40.4082 64.543 40.4082L61.6719 40.3672ZM86.5273 8.47754V20.249H92.4131C93.2197 20.249 93.9785 20.0986 94.6895 19.7979C95.4004 19.4834 96.0225 19.0596 96.5557 18.5264C97.0889 17.9932 97.5059 17.3711 97.8066 16.6602C98.1211 15.9355 98.2783 15.1699 98.2783 14.3633C98.2783 13.5566 98.1211 12.7979 97.8066 12.0869C97.5059 11.3623 97.0889 10.7334 96.5557 10.2002C96.0225 9.66699 95.4004 9.25 94.6895 8.94922C93.9785 8.63477 93.2197 8.47754 92.4131 8.47754H86.5273ZM86.5273 32H80.6416V2.5918H92.4131C93.4932 2.5918 94.5322 2.73535 95.5303 3.02246C96.5283 3.2959 97.458 3.69238 98.3193 4.21191C99.1943 4.71777 99.9873 5.33301 100.698 6.05762C101.423 6.76855 102.038 7.56152 102.544 8.43652C103.063 9.31152 103.46 10.248 103.733 11.2461C104.021 12.2441 104.164 13.2832 104.164 14.3633C104.164 15.9766 103.856 17.501 103.241 18.9365C102.626 20.3584 101.785 21.6025 100.719 22.6689C99.6523 23.7354 98.4014 24.5762 96.9658 25.1914C95.5439 25.8066 94.0264 26.1143 92.4131 26.1143H86.5273V32ZM128.261 20.8232C128.261 22.4639 127.967 23.9951 127.379 25.417C126.791 26.8252 125.991 28.0488 124.979 29.0879C123.968 30.1133 122.778 30.9268 121.411 31.5283C120.058 32.1162 118.602 32.4102 117.043 32.4102C115.498 32.4102 114.042 32.1162 112.675 31.5283C111.321 30.9268 110.132 30.1133 109.106 29.0879C108.095 28.0488 107.295 26.8252 106.707 25.417C106.119 23.9951 105.825 22.4639 105.825 20.8232C105.825 19.1553 106.119 17.6104 106.707 16.1885C107.295 14.7666 108.095 13.543 109.106 12.5176C110.132 11.4785 111.321 10.665 112.675 10.0771C114.042 9.48926 115.498 9.19531 117.043 9.19531C118.602 9.19531 120.058 9.47559 121.411 10.0361C122.778 10.583 123.968 11.3691 124.979 12.3945C125.991 13.4062 126.791 14.6299 127.379 16.0654C127.967 17.4873 128.261 19.0732 128.261 20.8232ZM122.621 20.8232C122.621 19.9209 122.471 19.1074 122.17 18.3828C121.883 17.6445 121.486 17.0156 120.98 16.4961C120.475 15.9629 119.88 15.5596 119.196 15.2861C118.526 14.999 117.809 14.8555 117.043 14.8555C116.277 14.8555 115.553 14.999 114.869 15.2861C114.199 15.5596 113.611 15.9629 113.105 16.4961C112.613 17.0156 112.224 17.6445 111.937 18.3828C111.649 19.1074 111.506 19.9209 111.506 20.8232C111.506 21.6709 111.649 22.457 111.937 23.1816C112.224 23.9062 112.613 24.5352 113.105 25.0684C113.611 25.6016 114.199 26.0254 114.869 26.3398C115.553 26.6406 116.277 26.791 117.043 26.791C117.809 26.791 118.526 26.6475 119.196 26.3604C119.88 26.0732 120.475 25.6699 120.98 25.1504C121.486 24.6309 121.883 24.002 122.17 23.2637C122.471 22.5254 122.621 21.7119 122.621 20.8232ZM136.997 40.3672H131.357V10.0361H132.711L134.946 12.6816C135.452 12.2031 136.006 11.752 136.607 11.3281C137.209 10.9043 137.831 10.542 138.474 10.2412C139.13 9.92676 139.807 9.68066 140.504 9.50293C141.201 9.3252 141.905 9.23633 142.616 9.23633C144.161 9.23633 145.61 9.5166 146.964 10.0771C148.331 10.624 149.521 11.4033 150.532 12.415C151.558 13.4268 152.364 14.6504 152.952 16.0859C153.54 17.5078 153.834 19.0869 153.834 20.8232C153.834 22.6279 153.54 24.2549 152.952 25.7041C152.364 27.1396 151.558 28.3633 150.532 29.375C149.521 30.373 148.331 31.1387 146.964 31.6719C145.61 32.2051 144.161 32.4717 142.616 32.4717C142.124 32.4717 141.632 32.417 141.14 32.3076C140.661 32.1982 140.183 32.0547 139.704 31.877C139.239 31.6855 138.774 31.4736 138.31 31.2412C137.858 31.0088 137.421 30.7695 136.997 30.5234V40.3672ZM148.215 20.8232C148.215 19.8936 148.064 19.0596 147.764 18.3213C147.477 17.583 147.08 16.9609 146.574 16.4551C146.068 15.9355 145.474 15.5391 144.79 15.2656C144.106 14.9922 143.382 14.8555 142.616 14.8555C141.851 14.8555 141.126 14.9922 140.442 15.2656C139.772 15.5391 139.185 15.9355 138.679 16.4551C138.173 16.9609 137.77 17.583 137.469 18.3213C137.182 19.0596 137.038 19.8936 137.038 20.8232C137.038 21.7119 137.182 22.5254 137.469 23.2637C137.77 24.002 138.173 24.6309 138.679 25.1504C139.185 25.6699 139.772 26.0732 140.442 26.3604C141.126 26.6475 141.851 26.791 142.616 26.791C143.382 26.791 144.106 26.6475 144.79 26.3604C145.474 26.0732 146.068 25.6699 146.574 25.1504C147.08 24.6309 147.477 24.002 147.764 23.2637C148.064 22.5254 148.215 21.7119 148.215 20.8232Z" fill="white"/>
</svg>
